<svg xmlns="http://www.w3.org/2000/svg" xmlns:xlink="http://www.w3.org/1999/xlink" width="568.5" height="651.5" viewBox="0 0 568.5 651.5">
  <defs>
    <clipPath id="clip-path">
      <rect width="651" height="568" fill="none"/>
    </clipPath>
    <clipPath id="clip-path-2">
      <rect width="568" height="650" fill="none"/>
    </clipPath>
  </defs>
  <g id="Group_286" data-name="Group 286" transform="translate(-444.5 1)">
    <g id="Repeat_Grid_2" data-name="Repeat Grid 2" transform="translate(1012.5 -1) rotate(90)" opacity="0.13" clip-path="url(#clip-path)">
      <g transform="translate(-516 -0.5)">
        <line id="Line_1" data-name="Line 1" y2="650" transform="translate(516.5 0.5)" fill="none" stroke="#707070" stroke-width="1"/>
      </g>
      <g transform="translate(-495 -0.5)">
        <line id="Line_1-2" data-name="Line 1" y2="650" transform="translate(516.5 0.5)" fill="none" stroke="#707070" stroke-width="1"/>
      </g>
      <g transform="translate(-474 -0.5)">
        <line id="Line_1-3" data-name="Line 1" y2="650" transform="translate(516.5 0.5)" fill="none" stroke="#707070" stroke-width="1"/>
      </g>
      <g transform="translate(-453 -0.5)">
        <line id="Line_1-4" data-name="Line 1" y2="650" transform="translate(516.5 0.5)" fill="none" stroke="#707070" stroke-width="1"/>
      </g>
      <g transform="translate(-432 -0.5)">
        <line id="Line_1-5" data-name="Line 1" y2="650" transform="translate(516.5 0.5)" fill="none" stroke="#707070" stroke-width="1"/>
      </g>
      <g transform="translate(-411 -0.5)">
        <line id="Line_1-6" data-name="Line 1" y2="650" transform="translate(516.5 0.5)" fill="none" stroke="#707070" stroke-width="1"/>
      </g>
      <g transform="translate(-390 -0.5)">
        <line id="Line_1-7" data-name="Line 1" y2="650" transform="translate(516.5 0.5)" fill="none" stroke="#707070" stroke-width="1"/>
      </g>
      <g transform="translate(-369 -0.5)">
        <line id="Line_1-8" data-name="Line 1" y2="650" transform="translate(516.5 0.5)" fill="none" stroke="#707070" stroke-width="1"/>
      </g>
      <g transform="translate(-348 -0.5)">
        <line id="Line_1-9" data-name="Line 1" y2="650" transform="translate(516.5 0.5)" fill="none" stroke="#707070" stroke-width="1"/>
      </g>
      <g transform="translate(-327 -0.5)">
        <line id="Line_1-10" data-name="Line 1" y2="650" transform="translate(516.5 0.5)" fill="none" stroke="#707070" stroke-width="1"/>
      </g>
      <g transform="translate(-306 -0.5)">
        <line id="Line_1-11" data-name="Line 1" y2="650" transform="translate(516.5 0.5)" fill="none" stroke="#707070" stroke-width="1"/>
      </g>
      <g transform="translate(-285 -0.5)">
        <line id="Line_1-12" data-name="Line 1" y2="650" transform="translate(516.5 0.5)" fill="none" stroke="#707070" stroke-width="1"/>
      </g>
      <g transform="translate(-264 -0.5)">
        <line id="Line_1-13" data-name="Line 1" y2="650" transform="translate(516.5 0.5)" fill="none" stroke="#707070" stroke-width="1"/>
      </g>
      <g transform="translate(-243 -0.5)">
        <line id="Line_1-14" data-name="Line 1" y2="650" transform="translate(516.5 0.5)" fill="none" stroke="#707070" stroke-width="1"/>
      </g>
      <g transform="translate(-222 -0.5)">
        <line id="Line_1-15" data-name="Line 1" y2="650" transform="translate(516.5 0.5)" fill="none" stroke="#707070" stroke-width="1"/>
      </g>
      <g transform="translate(-201 -0.5)">
        <line id="Line_1-16" data-name="Line 1" y2="650" transform="translate(516.5 0.5)" fill="none" stroke="#707070" stroke-width="1"/>
      </g>
      <g transform="translate(-180 -0.5)">
        <line id="Line_1-17" data-name="Line 1" y2="650" transform="translate(516.5 0.5)" fill="none" stroke="#707070" stroke-width="1"/>
      </g>
      <g transform="translate(-159 -0.5)">
        <line id="Line_1-18" data-name="Line 1" y2="650" transform="translate(516.5 0.5)" fill="none" stroke="#707070" stroke-width="1"/>
      </g>
      <g transform="translate(-138 -0.5)">
        <line id="Line_1-19" data-name="Line 1" y2="650" transform="translate(516.5 0.5)" fill="none" stroke="#707070" stroke-width="1"/>
      </g>
      <g transform="translate(-117 -0.5)">
        <line id="Line_1-20" data-name="Line 1" y2="650" transform="translate(516.5 0.5)" fill="none" stroke="#707070" stroke-width="1"/>
      </g>
      <g transform="translate(-96 -0.5)">
        <line id="Line_1-21" data-name="Line 1" y2="650" transform="translate(516.5 0.5)" fill="none" stroke="#707070" stroke-width="1"/>
      </g>
      <g transform="translate(-75 -0.5)">
        <line id="Line_1-22" data-name="Line 1" y2="650" transform="translate(516.5 0.5)" fill="none" stroke="#707070" stroke-width="1"/>
      </g>
      <g transform="translate(-54 -0.5)">
        <line id="Line_1-23" data-name="Line 1" y2="650" transform="translate(516.5 0.5)" fill="none" stroke="#707070" stroke-width="1"/>
      </g>
      <g transform="translate(-33 -0.5)">
        <line id="Line_1-24" data-name="Line 1" y2="650" transform="translate(516.5 0.5)" fill="none" stroke="#707070" stroke-width="1"/>
      </g>
      <g transform="translate(-12 -0.5)">
        <line id="Line_1-25" data-name="Line 1" y2="650" transform="translate(516.5 0.5)" fill="none" stroke="#707070" stroke-width="1"/>
      </g>
      <g transform="translate(9 -0.5)">
        <line id="Line_1-26" data-name="Line 1" y2="650" transform="translate(516.5 0.5)" fill="none" stroke="#707070" stroke-width="1"/>
      </g>
      <g transform="translate(30 -0.5)">
        <line id="Line_1-27" data-name="Line 1" y2="650" transform="translate(516.5 0.5)" fill="none" stroke="#707070" stroke-width="1"/>
      </g>
      <g transform="translate(51 -0.5)">
        <line id="Line_1-28" data-name="Line 1" y2="650" transform="translate(516.5 0.5)" fill="none" stroke="#707070" stroke-width="1"/>
      </g>
      <g transform="translate(72 -0.5)">
        <line id="Line_1-29" data-name="Line 1" y2="650" transform="translate(516.5 0.5)" fill="none" stroke="#707070" stroke-width="1"/>
      </g>
      <g transform="translate(93 -0.5)">
        <line id="Line_1-30" data-name="Line 1" y2="650" transform="translate(516.5 0.5)" fill="none" stroke="#707070" stroke-width="1"/>
      </g>
      <g transform="translate(114 -0.5)">
        <line id="Line_1-31" data-name="Line 1" y2="650" transform="translate(516.5 0.5)" fill="none" stroke="#707070" stroke-width="1"/>
      </g>
    </g>
    <g id="Repeat_Grid_1" data-name="Repeat Grid 1" transform="translate(445 0.5)" opacity="0.13" clip-path="url(#clip-path-2)">
      <g transform="translate(-516 -0.5)">
        <line id="Line_1-32" data-name="Line 1" y2="650" transform="translate(516.5 0.5)" fill="none" stroke="#707070" stroke-width="1"/>
      </g>
      <g transform="translate(-495 -0.5)">
        <line id="Line_1-33" data-name="Line 1" y2="650" transform="translate(516.5 0.5)" fill="none" stroke="#707070" stroke-width="1"/>
      </g>
      <g transform="translate(-474 -0.5)">
        <line id="Line_1-34" data-name="Line 1" y2="650" transform="translate(516.5 0.5)" fill="none" stroke="#707070" stroke-width="1"/>
      </g>
      <g transform="translate(-453 -0.5)">
        <line id="Line_1-35" data-name="Line 1" y2="650" transform="translate(516.5 0.5)" fill="none" stroke="#707070" stroke-width="1"/>
      </g>
      <g transform="translate(-432 -0.5)">
        <line id="Line_1-36" data-name="Line 1" y2="650" transform="translate(516.5 0.5)" fill="none" stroke="#707070" stroke-width="1"/>
      </g>
      <g transform="translate(-411 -0.5)">
        <line id="Line_1-37" data-name="Line 1" y2="650" transform="translate(516.5 0.5)" fill="none" stroke="#707070" stroke-width="1"/>
      </g>
      <g transform="translate(-390 -0.5)">
        <line id="Line_1-38" data-name="Line 1" y2="650" transform="translate(516.5 0.5)" fill="none" stroke="#707070" stroke-width="1"/>
      </g>
      <g transform="translate(-369 -0.5)">
        <line id="Line_1-39" data-name="Line 1" y2="650" transform="translate(516.5 0.5)" fill="none" stroke="#707070" stroke-width="1"/>
      </g>
      <g transform="translate(-348 -0.5)">
        <line id="Line_1-40" data-name="Line 1" y2="650" transform="translate(516.5 0.5)" fill="none" stroke="#707070" stroke-width="1"/>
      </g>
      <g transform="translate(-327 -0.5)">
        <line id="Line_1-41" data-name="Line 1" y2="650" transform="translate(516.5 0.5)" fill="none" stroke="#707070" stroke-width="1"/>
      </g>
      <g transform="translate(-306 -0.5)">
        <line id="Line_1-42" data-name="Line 1" y2="650" transform="translate(516.5 0.5)" fill="none" stroke="#707070" stroke-width="1"/>
      </g>
      <g transform="translate(-285 -0.5)">
        <line id="Line_1-43" data-name="Line 1" y2="650" transform="translate(516.5 0.5)" fill="none" stroke="#707070" stroke-width="1"/>
      </g>
      <g transform="translate(-264 -0.5)">
        <line id="Line_1-44" data-name="Line 1" y2="650" transform="translate(516.5 0.5)" fill="none" stroke="#707070" stroke-width="1"/>
      </g>
      <g transform="translate(-243 -0.5)">
        <line id="Line_1-45" data-name="Line 1" y2="650" transform="translate(516.5 0.5)" fill="none" stroke="#707070" stroke-width="1"/>
      </g>
      <g transform="translate(-222 -0.5)">
        <line id="Line_1-46" data-name="Line 1" y2="650" transform="translate(516.5 0.5)" fill="none" stroke="#707070" stroke-width="1"/>
      </g>
      <g transform="translate(-201 -0.5)">
        <line id="Line_1-47" data-name="Line 1" y2="650" transform="translate(516.5 0.5)" fill="none" stroke="#707070" stroke-width="1"/>
      </g>
      <g transform="translate(-180 -0.5)">
        <line id="Line_1-48" data-name="Line 1" y2="650" transform="translate(516.5 0.5)" fill="none" stroke="#707070" stroke-width="1"/>
      </g>
      <g transform="translate(-159 -0.5)">
        <line id="Line_1-49" data-name="Line 1" y2="650" transform="translate(516.5 0.5)" fill="none" stroke="#707070" stroke-width="1"/>
      </g>
      <g transform="translate(-138 -0.5)">
        <line id="Line_1-50" data-name="Line 1" y2="650" transform="translate(516.5 0.5)" fill="none" stroke="#707070" stroke-width="1"/>
      </g>
      <g transform="translate(-117 -0.5)">
        <line id="Line_1-51" data-name="Line 1" y2="650" transform="translate(516.5 0.5)" fill="none" stroke="#707070" stroke-width="1"/>
      </g>
      <g transform="translate(-96 -0.5)">
        <line id="Line_1-52" data-name="Line 1" y2="650" transform="translate(516.5 0.5)" fill="none" stroke="#707070" stroke-width="1"/>
      </g>
      <g transform="translate(-75 -0.5)">
        <line id="Line_1-53" data-name="Line 1" y2="650" transform="translate(516.5 0.5)" fill="none" stroke="#707070" stroke-width="1"/>
      </g>
      <g transform="translate(-54 -0.5)">
        <line id="Line_1-54" data-name="Line 1" y2="650" transform="translate(516.5 0.5)" fill="none" stroke="#707070" stroke-width="1"/>
      </g>
      <g transform="translate(-33 -0.5)">
        <line id="Line_1-55" data-name="Line 1" y2="650" transform="translate(516.5 0.5)" fill="none" stroke="#707070" stroke-width="1"/>
      </g>
      <g transform="translate(-12 -0.5)">
        <line id="Line_1-56" data-name="Line 1" y2="650" transform="translate(516.5 0.5)" fill="none" stroke="#707070" stroke-width="1"/>
      </g>
      <g transform="translate(9 -0.5)">
        <line id="Line_1-57" data-name="Line 1" y2="650" transform="translate(516.5 0.5)" fill="none" stroke="#707070" stroke-width="1"/>
      </g>
      <g transform="translate(30 -0.5)">
        <line id="Line_1-58" data-name="Line 1" y2="650" transform="translate(516.5 0.5)" fill="none" stroke="#707070" stroke-width="1"/>
      </g>
      <g transform="translate(51 -0.5)">
        <line id="Line_1-59" data-name="Line 1" y2="650" transform="translate(516.5 0.5)" fill="none" stroke="#707070" stroke-width="1"/>
      </g>
    </g>
  </g>
</svg>
