<svg xmlns="http://www.w3.org/2000/svg" width="19.091" height="17.5" viewBox="0 0 19.091 17.5">
  <g id="check" transform="translate(0 -0.004)">
    <path id="Path_1361" data-name="Path 1361" d="M11.432,11.833a2.385,2.385,0,0,1-3.374,0L4.676,8.452A2.386,2.386,0,1,1,8.051,5.078L9.744,6.771,14.419,2.1a8.7,8.7,0,1,0,2.689,4.061Zm0,0" fill="#2196f3"/>
    <path id="Path_1362" data-name="Path 1362" d="M153.5,31.473a.793.793,0,0,1-.562-.233l-3.381-3.381a.8.8,0,1,1,1.125-1.125l2.818,2.818,7.989-7.989a.8.8,0,0,1,1.125,1.125l-8.551,8.551a.793.793,0,0,1-.562.233Zm0,0" transform="translate(-143.76 -20.532)" fill="#065475"/>
  </g>
</svg>
