<svg xmlns="http://www.w3.org/2000/svg" width="15.923" height="15.923" viewBox="0 0 15.923 15.923">
  <g id="click" transform="translate(-1 -1)">
    <path id="Path_1367" data-name="Path 1367" d="M7.208,9.063A2.822,2.822,0,1,1,9.063,7.208l1.42.6a4.38,4.38,0,1,0-2.676,2.675Z" transform="translate(-0.743 -0.743)" fill="#c1e3ff"/>
    <g id="Group_350" data-name="Group 350" transform="translate(1 1)">
      <path id="Path_1368" data-name="Path 1368" d="M24.207,22.3l3.669-.917a.257.257,0,0,0,.037-.486L16.357,16.02a.257.257,0,0,0-.336.336L20.9,27.913a.257.257,0,0,0,.237.157h.02a.257.257,0,0,0,.229-.194l.917-3.669,3.788,3.788a.257.257,0,0,0,.363,0L28,26.454a.257.257,0,0,0,0-.363Zm2.066,5.148-3.927-3.927a.257.257,0,0,0-.182-.075.261.261,0,0,0-.069.009.257.257,0,0,0-.181.185L21.074,27,16.739,16.739,27,21.073l-3.363.841a.257.257,0,0,0-.119.431l3.927,3.927Z" transform="translate(-12.148 -12.148)" fill="#2196f3"/>
      <path id="Path_1369" data-name="Path 1369" d="M10.245,5.623a4.623,4.623,0,1,0-4.623,4.623V9.732A4.109,4.109,0,1,1,9.732,5.623Z" transform="translate(-1 -1)" fill="#2196f3"/>
      <path id="Path_1370" data-name="Path 1370" d="M10.082,7.514a2.571,2.571,0,0,1,2.568,2.568h.514a3.082,3.082,0,1,0-3.082,3.082V12.65a2.568,2.568,0,0,1,0-5.136Z" transform="translate(-5.459 -5.459)" fill="#2196f3"/>
    </g>
  </g>
</svg>
