<svg xmlns="http://www.w3.org/2000/svg" viewBox="0 0 357.948 126.325">
  <defs>
    <style>
      .cls-1 {
        fill: #232323;
      }
    </style>
  </defs>
  <path id="Path_1" data-name="Path 1" class="cls-1" d="M55.909-108.721,3.26,0H22.494l3.1-5.7c2.771-5.053,14.67-12.062,36.838-12.062h37L107.417,0H127.3L68.786-123.717H49.226ZM68.949-35.7c-16.626,0-26.569,3.1-30.97,6.846l26.9-58.191L91.443-35.7ZM137.083-3.749C142.788,0,155.339,2.608,162.511,2.608c21.353,0,38.957-11.41,38.957-34.23V-84.434H157.132l7.5,16.789h20.212v36.023c0,12.225-10.269,17.278-21.027,17.278-9.291,0-15-1.956-17.93-4.727ZM275.144,2.608c23.472,0,40.587-10.921,40.587-35.7V-84.434H298.942v51.345c0,14.344-9.617,18.745-23.961,18.745s-23.961-4.4-23.961-18.745V-84.434H234.231v51.345c0,24.776,17.115,35.7,40.587,35.7Zm66.667-12.714a9.532,9.532,0,0,0,9.617,9.617,9.67,9.67,0,0,0,9.78-9.617,9.809,9.809,0,0,0-9.78-9.78A9.67,9.67,0,0,0,341.811-10.106Z" transform="translate(-3.26 123.717)"/>
</svg>
