<svg xmlns="http://www.w3.org/2000/svg" width="14.005" height="9.222" viewBox="0 0 14.005 9.222">
  <g id="view" transform="translate(0 -87.438)">
    <g id="Group_343" data-name="Group 343" transform="translate(0 87.438)">
      <g id="Group_342" data-name="Group 342">
        <path id="Path_1363" data-name="Path 1363" d="M7,87.438c3.687,0,6.617,3.785,7,4.306a13.339,13.339,0,0,0-7-2.21,13.2,13.2,0,0,0-7,2.21C.386,91.223,3.315,87.438,7,87.438Z" transform="translate(0 -87.438)" fill="#fff"/>
      </g>
    </g>
    <g id="Group_345" data-name="Group 345" transform="translate(6.583 91.63)">
      <g id="Group_344" data-name="Group 344">
        <path id="Path_1364" data-name="Path 1364" d="M241.1,240.676a.419.419,0,1,1-.419.419A.419.419,0,0,1,241.1,240.676Z" transform="translate(-240.676 -240.676)" fill="#fff"/>
      </g>
    </g>
    <g id="Group_347" data-name="Group 347" transform="translate(4.907 90.372)">
      <g id="Group_346" data-name="Group 346">
        <path id="Path_1365" data-name="Path 1365" d="M180.111,194.8a9.538,9.538,0,0,1,2.73,0,2.1,2.1,0,1,1-2.73,0Zm1.365,2.836a1.257,1.257,0,1,0-1.257-1.257A1.259,1.259,0,0,0,181.477,197.639Z" transform="translate(-179.381 -194.705)" fill="#fff"/>
      </g>
    </g>
    <g id="Group_349" data-name="Group 349" transform="translate(0.208 90.715)">
      <g id="Group_348" data-name="Group 348">
        <path id="Path_1366" data-name="Path 1366" d="M11.794,207.248a2.934,2.934,0,1,0,5.218,0,13.012,13.012,0,0,1,4.186,1.906c-.81,1.015-3.5,4.038-6.794,4.038s-5.984-3.023-6.794-4.038A13.081,13.081,0,0,1,11.794,207.248Z" transform="translate(-7.609 -207.247)" fill="#fff"/>
      </g>
    </g>
  </g>
</svg>
